<?xml version="1.0" encoding="UTF-8"?>
<!-- Generator: Adobe Illustrator 25.3.1, SVG Export Plug-In . SVG Version: 6.00 Build 0)  -->
<svg version="1.1" id="Layer_1" xmlns="http://www.w3.org/2000/svg" xmlns:xlink="http://www.w3.org/1999/xlink" x="0px" y="0px" viewBox="0 0 805 197" style="enable-background:new 0 0 805 197;" xml:space="preserve">
<style type="text/css">
	.st0{display:none;}
	.st1{display:inline;}
	.st2{fill:#8A84D6;}
	.st3{fill-rule:evenodd;clip-rule:evenodd;fill:#8A84D6;}
	.st4{fill:#1226AA;}
	.st5{fill-rule:evenodd;clip-rule:evenodd;fill:#1226AA;}
	.st6{fill-rule:evenodd;clip-rule:evenodd;fill:#B6B8DD;}
	.st7{fill:#B6B8DD;}
</style>
<desc>Created with Sketch.</desc>
<g id="Page-1" class="st0">
	<g id="ASA-Logo-RGB" class="st1">
		<path id="Shape" class="st2" d="M272.46,86.12l-4.85-13.37h-19.77L243,86.12h-5.25l17.51-45.87h5l17.44,45.87H272.46z     M266.06,68.49l-6.78-18.8c-0.78-2.16-1.27-3.64-1.49-4.46h-0.13c-0.4,1.52-0.9,3.01-1.48,4.46l-6.79,18.8H266.06z"/>
		<path id="Path" class="st3" d="M286.28,53.82v6.27c0.66-2.11,1.95-3.97,3.69-5.33c3.54-2.43,8.22-2.43,11.76,0    c1.67,1.33,2.87,3.16,3.42,5.23c0.79-2.11,2.18-3.94,4-5.27c1.77-1.2,3.86-1.82,6-1.77c2.8-0.15,5.51,1.02,7.33,3.16    c1.75,2.11,2.63,5.08,2.62,8.92l0,21.09h-4.52V65.39c0.15-2.23-0.46-4.45-1.72-6.3c-1.25-1.51-3.16-2.32-5.11-2.17    c-2.23-0.1-4.38,0.84-5.81,2.55c-1.52,2.01-2.27,4.49-2.13,7v19.65h-4.46v-21c0.14-2.17-0.48-4.32-1.75-6.08    c-1.24-1.46-3.09-2.25-5-2.13c-2.29-0.06-4.47,0.99-5.85,2.82c-1.56,2.19-2.34,4.84-2.2,7.53v18.86h-4.46v-32.3H286.28z"/>
		<path id="Shape_1_" class="st2" d="M358.06,71.14h-23.45c0,3.61,1,6.48,2.84,8.59c1.9,2.13,4.65,3.29,7.5,3.16    c2.06,0.06,4.07-0.58,5.72-1.81c1.64-1.3,2.82-3.09,3.39-5.1l3.81,1.59c-0.82,2.81-2.55,5.27-4.91,7    c-2.46,1.66-5.37,2.51-8.34,2.42c-4.6,0-8.17-1.44-10.72-4.33c-2.55-2.89-3.82-7.02-3.81-12.4c0-5.3,1.28-9.48,3.84-12.54    c2.6-3.07,6.48-4.76,10.5-4.58c4.35,0,7.71,1.28,10.08,3.84c2.37,2.56,3.56,6.27,3.55,11.14V71.14z M353.48,66.87    c0-3.31-0.8-5.85-2.4-7.59c-1.75-1.81-4.2-2.77-6.71-2.62c-2.67-0.12-5.25,0.94-7.05,2.91c-1.83,2.22-2.79,5.03-2.71,7.91h18.87    V66.87z"/>
		<path id="Path_1_" class="st3" d="M372.37,55.44c1.69-1.57,3.93-2.43,6.24-2.39c0.41-0.01,0.82,0.01,1.23,0.06v4.39h-0.52    c-2.54-0.13-5.02,0.76-6.91,2.46c-1.37,1.36-2.34,3.07-2.81,4.94c-0.52,2.1-0.77,4.26-0.75,6.43v14.79h-4.46v-32.3h4.2v7.88    C369.25,59.31,370.56,57.14,372.37,55.44z"/>
		<path id="Shape_2_" class="st2" d="M383.84,48.01V40.9h5.1v7.11H383.84z M384.16,86.12v-32.3h4.46v32.3H384.16z"/>
		<path id="Path_2_" class="st3" d="M401.51,84.83c-2.25-1.41-4.02-3.46-5.1-5.88c-1.25-2.83-1.86-5.91-1.78-9    c0-5.25,1.31-9.38,3.94-12.4c2.63-3.02,6.2-4.53,10.72-4.52c3.3-0.23,6.55,0.89,9.01,3.09c2.46,2.21,3.92,5.32,4.05,8.62    l-4.59,0.52c-0.14-2.31-1.1-4.49-2.72-6.14c-1.62-1.47-3.76-2.23-5.94-2.13c-2.79-0.11-5.45,1.17-7.11,3.42    c-1.72,2.28-2.58,5.45-2.58,9.5c0,4.05,0.87,7.27,2.62,9.66c1.7,2.27,4.42,3.56,7.26,3.43c2.16,0.1,4.26-0.67,5.85-2.13    c1.61-1.67,2.62-3.83,2.88-6.14l4.33,0.64c-0.4,3.26-1.93,6.28-4.33,8.53c-2.43,2.06-5.55,3.14-8.73,3    C406.55,86.96,403.85,86.24,401.51,84.83z"/>
		<path id="Shape_3_" class="st2" d="M428.19,84.35c-1.96-1.69-3.05-4.19-2.94-6.78c-0.02-1.45,0.32-2.89,1-4.17    c0.7-1.26,1.71-2.32,2.94-3.07c2.29-1.33,5.83-2.3,10.6-2.91l7.17-0.84v-0.51c0-3.33-0.61-5.71-1.84-7.14    c-1.23-1.43-3.23-2.15-6-2.17c-2.09-0.12-4.14,0.54-5.78,1.84c-1.46,1.36-2.29,3.27-2.29,5.27h-4.85    c0.05-3.06,1.43-5.96,3.78-7.92c2.58-2.03,5.8-3.07,9.08-2.93c4.35,0,7.51,1.05,9.46,3.16c1.95,2.11,2.93,5.51,2.94,10.21v8.4    c-0.13,3.79,0.21,7.59,1,11.3h-4.72c-0.34-2.14-0.53-4.3-0.58-6.46c-0.71,2.21-2.18,4.09-4.14,5.33c-2.13,1.31-4.6,1.98-7.1,1.91    C433.12,87,430.37,86.11,428.19,84.35z M444.28,80.08c1.89-2.22,2.87-5.08,2.75-8v-2.11l-9.18,1.29c-2.14,0.17-4.21,0.88-6,2.07    c-1.2,1.05-1.89,2.56-1.89,4.15c0,1.59,0.69,3.1,1.89,4.15c1.49,1.08,3.3,1.62,5.14,1.52C439.76,83.27,442.43,82.14,444.28,80.08z    "/>
		<path id="Path_3_" class="st3" d="M459.69,53.82h4.26v7.11c1.94-5.33,5.62-8,11.05-8c3.62,0,6.35,1.12,8.21,3.36    c1.86,2.24,2.77,5.53,2.77,9.88v20h-4.52V66.42c0-3.14-0.67-5.51-2-7.11c-1.47-1.65-3.62-2.53-5.82-2.39    c-2.69-0.09-5.25,1.13-6.89,3.26c-1.7,2.18-2.55,5.18-2.55,9v17h-4.46L459.69,53.82z"/>
		<path id="Path_4_" class="st3" d="M509.27,83.15c-3.1-2.75-4.95-6.65-5.13-10.79l5-0.71c0.27,3.11,1.63,6.03,3.84,8.24    c2.18,2.13,5.31,3.2,9.4,3.2c2.8,0.11,5.57-0.66,7.92-2.2c2.09-1.47,3.27-3.91,3.13-6.46c0-2.8-0.77-4.83-2.29-6.1    c-2.07-1.5-4.47-2.46-7-2.82l-6.79-1.35c-7.54-1.47-11.31-5.57-11.3-12.28c-0.05-2.37,0.61-4.69,1.9-6.68    c1.34-1.98,3.23-3.53,5.43-4.46c2.6-1.11,5.41-1.65,8.24-1.59c4.73,0,8.59,1.1,11.56,3.3s4.64,5.53,5,10l-5,1    c-0.67-6.85-4.56-10.28-11.69-10.27c-2.67-0.13-5.31,0.65-7.47,2.23c-1.84,1.44-2.88,3.67-2.81,6c-0.09,2.01,0.63,3.98,2,5.46    c1.72,1.56,3.87,2.59,6.17,2.94l6.79,1.36c3.36,0.52,6.53,1.92,9.17,4.07c2.2,1.93,3.3,4.82,3.3,8.65    c0.04,2.41-0.62,4.79-1.89,6.84c-1.36,2.09-3.3,3.75-5.58,4.75c-2.82,1.23-5.88,1.82-8.95,1.74    C516.67,87.22,512.35,85.86,509.27,83.15z"/>
		<path id="Shape_4_" class="st2" d="M548.59,84.86c-2.28-1.39-4.09-3.44-5.2-5.87c-1.28-2.82-1.91-5.9-1.84-9    c-0.07-3.1,0.56-6.18,1.84-9c1.11-2.43,2.92-4.48,5.2-5.88c2.37-1.38,5.08-2.07,7.82-2c2.73-0.07,5.43,0.62,7.78,2    c2.26,1.41,4.06,3.46,5.17,5.88c1.28,2.82,1.91,5.9,1.84,9c0.07,3.1-0.56,6.18-1.84,9c-1.11,2.42-2.91,4.47-5.17,5.87    c-2.36,1.38-5.05,2.07-7.78,2C553.67,86.93,550.96,86.24,548.59,84.86z M563.75,79.57c1.77-2.24,2.65-5.45,2.65-9.63    s-0.88-7.38-2.65-9.59c-1.86-2.14-4.55-3.36-7.38-3.36s-5.52,1.23-7.38,3.36c-1.79,2.24-2.68,5.45-2.68,9.62s0.9,7.37,2.7,9.6    c1.86,2.13,4.54,3.35,7.37,3.35S561.89,81.7,563.75,79.57z"/>
		<path id="Path_5_" class="st3" d="M581.05,84.83c-2.25-1.41-4.02-3.46-5.1-5.88c-1.25-2.83-1.86-5.91-1.78-9    c0-5.25,1.31-9.38,3.94-12.4c2.63-3.02,6.2-4.53,10.73-4.52c3.28-0.22,6.52,0.9,8.96,3.1c2.45,2.2,3.9,5.3,4.04,8.59l-4.59,0.52    c-0.13-2.31-1.1-4.49-2.71-6.14c-1.89-1.58-4.34-2.33-6.79-2.08s-4.71,1.46-6.26,3.37c-1.73,2.28-2.6,5.45-2.59,9.5    c0.01,4.05,0.9,7.28,2.67,9.68c1.71,2.27,4.43,3.56,7.27,3.43c2.16,0.09,4.26-0.67,5.85-2.13c1.61-1.68,2.61-3.83,2.87-6.14    l4.33,0.64c-0.4,3.26-1.93,6.28-4.33,8.53c-2.42,2.06-5.54,3.13-8.72,3C586.1,86.96,583.4,86.24,581.05,84.83z"/>
		<path id="Shape_5_" class="st2" d="M607.64,48.01V40.9h5.11v7.11H607.64z M607.96,86.12v-32.3h4.46v32.3H607.96z"/>
		<path id="Shape_6_" class="st2" d="M646.4,71.14h-23.45c0,3.61,1,6.48,2.84,8.59c1.9,2.13,4.65,3.29,7.5,3.16    c2.05,0.06,4.07-0.58,5.71-1.81c1.64-1.3,2.83-3.08,3.4-5.1l3.81,1.59c-0.82,2.81-2.55,5.27-4.91,7    c-2.46,1.66-5.37,2.51-8.34,2.42c-4.61,0-8.18-1.44-10.72-4.33c-2.54-2.89-3.81-7.02-3.81-12.4c0-5.3,1.28-9.48,3.84-12.54    c2.58-3.1,6.45-4.82,10.48-4.67c4.35,0,7.71,1.28,10.08,3.84c2.37,2.56,3.55,6.27,3.55,11.14L646.4,71.14z M641.82,66.87    c0-3.31-0.8-5.85-2.4-7.59c-1.74-1.8-4.17-2.75-6.67-2.62c-2.68-0.13-5.28,0.93-7.09,2.91c-1.83,2.22-2.79,5.03-2.71,7.91h18.87    V66.87z"/>
		<path id="Path_6_" class="st3" d="M647.05,53.82h5.94v-8.53l4.53-1.94v10.47h8.33v3.75h-8.33v19.38c-0.14,1.5,0.3,2.99,1.23,4.17    c1.02,0.94,2.38,1.42,3.77,1.32c1.11-0.03,2.22-0.18,3.3-0.45v4.13c-1.45,0.41-2.95,0.61-4.46,0.59c-2.97,0-5.12-0.83-6.43-2.49    c-1.31-1.66-1.98-4.02-2-7.08V57.57h-5.88V53.82z"/>
		<path id="Path_7_" class="st3" d="M669.08,98.85v-4c0.75,0.13,1.5,0.19,2.26,0.19c1.75,0.1,3.46-0.49,4.78-1.65    c1.38-1.46,2.41-3.21,3-5.13l0.84-2.39l-12.92-32h5l8.71,23.02c0.55,1.44,1.03,2.9,1.42,4.39h0.13c0.3-1.21,0.75-2.69,1.36-4.46    l7.88-23h4.84l-12.63,34.37c-1.43,3.92-3.07,6.72-5,8.4c-1.89,1.69-4.35,2.59-6.88,2.52C670.93,99.11,670,99.03,669.08,98.85z"/>
		<path id="Shape_7_" class="st2" d="M717.47,84.86c-2.28-1.4-4.09-3.44-5.2-5.87c-1.28-2.82-1.91-5.9-1.84-9    c-0.07-3.1,0.56-6.18,1.84-9c1.11-2.43,2.92-4.48,5.2-5.88c2.37-1.38,5.08-2.07,7.82-2c2.73-0.07,5.43,0.62,7.78,2    c2.26,1.41,4.06,3.46,5.17,5.88c1.28,2.82,1.91,5.9,1.84,9c0.07,3.1-0.56,6.18-1.84,9c-1.11,2.42-2.91,4.47-5.17,5.87    c-2.36,1.38-5.05,2.07-7.78,2C722.55,86.93,719.84,86.24,717.47,84.86z M732.65,79.57c1.77-2.24,2.65-5.45,2.65-9.63    s-0.88-7.39-2.65-9.62c-1.77-2.24-4.51-3.49-7.36-3.36c-2.86-0.13-5.61,1.12-7.4,3.36c-1.79,2.24-2.68,5.45-2.68,9.62    s0.89,7.38,2.68,9.63c1.79,2.24,4.54,3.49,7.4,3.36C728.14,83.06,730.88,81.81,732.65,79.57z"/>
		<path id="Path_8_" class="st3" d="M759.53,57.57h-8.4v28.55h-4.46V57.57h-6.07v-3.75h6.07v-5.36c-0.14-2.56,0.73-5.08,2.43-7    c1.74-1.77,4.17-2.7,6.65-2.56c1.28-0.03,2.57,0.12,3.81,0.45v3.87c-1.07-0.2-2.15-0.31-3.23-0.32c-1.47-0.13-2.92,0.42-3.94,1.49    c-0.93,1.36-1.36,3-1.23,4.65v4.78h8.4L759.53,57.57z"/>
		<path id="Shape_8_" class="st4" d="M272.01,155.93l-3.49-10.72h-16.93l-3.49,10.72h-10.92l16.67-45.87h12.47l16.67,45.87H272.01z     M266.01,137.52l-4.2-12.79c-0.35-1-0.66-2-0.94-3.07c-0.28-1.07-0.53-2.19-0.74-3.4H260c-0.22,1.21-0.46,2.34-0.74,3.4    c-0.28,1.06-0.6,2.08-0.94,3.07l-4.21,12.84L266.01,137.52z"/>
		<path id="Path_9_" class="st5" d="M288.16,123.63h9.95v6.2c2.24-4.67,5.81-7,10.72-7c3.49,0,6.12,1.1,7.88,3.29    c1.76,2.19,2.64,5.47,2.65,9.82v20h-10.33v-18.62c0.14-1.75-0.28-3.5-1.2-5c-0.87-1.12-2.24-1.72-3.65-1.62    c-1.64-0.08-3.21,0.67-4.17,2c-1.07,1.72-1.58,3.73-1.45,5.75v17.44h-10.4V123.63z"/>
		<path id="Shape_9_" class="st4" d="M357.29,142.1h-22.42c-0.06,1.96,0.7,3.86,2.1,5.24c1.87,1.62,4.4,2.28,6.83,1.77    c2.43-0.51,4.48-2.12,5.54-4.36l7.62,3.49c-1.26,2.63-3.3,4.81-5.84,6.24c-2.74,1.52-5.82,2.29-8.95,2.23    c-5.33,0-9.52-1.47-12.57-4.4s-4.56-7-4.55-12.21c-0.07-3.16,0.61-6.3,2-9.14c1.26-2.53,3.26-4.62,5.72-6    c2.66-1.45,5.66-2.17,8.69-2.1c5.08,0,8.99,1.41,11.73,4.23c2.74,2.82,4.11,6.79,4.1,11.92V142.1z M347.29,136.03    c0.13-1.87-0.42-3.73-1.55-5.23c-1.13-1.25-2.77-1.92-4.45-1.81c-1.75-0.1-3.45,0.6-4.62,1.91c-1.2,1.54-1.83,3.44-1.78,5.39h12.4    V136.03z"/>
		<path id="Path_10_" class="st5" d="M366.69,154.74c-2.69-1.24-4.95-3.26-6.49-5.79l6-4.52c2.29,3.49,5.7,5.23,10.21,5.23    c1.3,0.08,2.61-0.17,3.78-0.74c0.79-0.4,1.28-1.22,1.26-2.1c0.06-0.83-0.32-1.62-1-2.1c-1.12-0.61-2.35-0.97-3.62-1.06l-4.65-0.65    c-6.85-1.03-10.27-4.35-10.27-9.95c-0.09-2.99,1.36-5.81,3.84-7.49c2.52-1.83,6-2.75,10.43-2.75c3.02-0.05,6.01,0.53,8.79,1.71    c2.36,0.97,4.4,2.6,5.88,4.69l-5.36,4.84c-2.4-2.82-5.93-4.4-9.63-4.32c-1.18-0.08-2.35,0.14-3.42,0.64c-0.72,0.4-1.15,1.18-1.1,2    c-0.03,0.72,0.3,1.41,0.87,1.85c0.89,0.55,1.9,0.87,2.94,0.93l5.75,0.91c3.36,0.47,5.8,1.54,7.33,3.19    c1.61,1.87,2.43,4.29,2.3,6.76c0.12,3.07-1.3,6-3.78,7.81c-2.52,1.9-6.02,2.85-10.5,2.85    C372.96,156.75,369.69,156.09,366.69,154.74z"/>
		<path id="Path_11_" class="st5" d="M393.08,123.63h5.67v-7.76l10.34-4v11.76h7.66v6.94h-7.69v12.6c0,3.27,1.57,4.91,4.71,4.91    c1.01-0.01,2.01-0.12,3-0.32v8.2c-1.94,0.39-3.9,0.61-5.88,0.65c-4.18,0-7.25-0.93-9.21-2.78c-1.96-1.85-2.94-4.61-2.93-8.26v-15    h-5.62L393.08,123.63z"/>
		<path id="Shape_10_" class="st4" d="M492.12,142.1h-22.37c-0.05,1.96,0.71,3.86,2.1,5.24c1.88,1.62,4.4,2.28,6.83,1.77    s4.48-2.12,5.55-4.36l7.62,3.49c-1.26,2.64-3.3,4.82-5.85,6.24c-2.74,1.52-5.82,2.29-8.95,2.23c-5.33,0-9.52-1.47-12.56-4.4    c-3.04-2.93-4.56-7-4.56-12.21c-0.08-3.16,0.61-6.3,2-9.14c1.26-2.53,3.25-4.62,5.71-6c2.66-1.45,5.66-2.17,8.69-2.1    c5.09,0,9,1.41,11.73,4.23c2.73,2.82,4.1,6.8,4.1,11.92L492.12,142.1z M482.12,136.03c0.13-1.87-0.42-3.73-1.55-5.23    c-1.13-1.25-2.78-1.92-4.46-1.81c-1.75-0.1-3.45,0.61-4.62,1.91c-1.19,1.54-1.82,3.44-1.78,5.39h12.41V136.03z"/>
		<path id="Path_12_" class="st5" d="M501.52,154.74c-2.69-1.24-4.95-3.26-6.49-5.79l6-4.52c2.28,3.49,5.68,5.23,10.21,5.23    c1.3,0.08,2.61-0.17,3.78-0.74c0.79-0.4,1.28-1.22,1.26-2.1c0.05-0.83-0.33-1.62-1-2.1c-1.12-0.6-2.35-0.96-3.62-1.06l-4.65-0.65    c-6.84-1.03-10.26-4.35-10.26-9.95c-0.09-2.98,1.34-5.8,3.8-7.49c2.52-1.83,6-2.75,10.44-2.75c3.01-0.03,5.99,0.56,8.76,1.75    c2.36,0.97,4.4,2.6,5.87,4.69l-5.36,4.84c-2.39-2.81-5.93-4.4-9.62-4.32c-1.18-0.08-2.36,0.14-3.43,0.64    c-0.72,0.4-1.14,1.18-1.1,2c-0.03,0.72,0.3,1.41,0.88,1.85c0.89,0.55,1.9,0.87,2.94,0.93l5.75,0.91c3.35,0.47,5.8,1.54,7.33,3.19    c1.61,1.87,2.43,4.3,2.29,6.76c0.12,3.07-1.3,6-3.78,7.81c-2.52,1.9-6.02,2.85-10.5,2.85C507.75,156.77,504.5,156.1,501.52,154.74    z"/>
		<path id="Shape_11_" class="st4" d="M555.92,154.74c-2.51-1.3-4.57-3.32-5.94-5.79c-2.88-5.81-2.88-12.63,0-18.44    c1.37-2.45,3.44-4.44,5.94-5.72c2.68-1.33,5.64-1.99,8.63-1.94c3-0.05,5.97,0.62,8.66,1.94c2.53,1.26,4.62,3.26,6,5.72    c2.89,5.81,2.89,12.63,0,18.44c-1.38,2.48-3.47,4.5-6,5.79c-2.68,1.35-5.65,2.04-8.66,2C561.55,156.78,558.59,156.1,555.92,154.74    z M569.33,147.05c1.12-1.66,1.68-4.11,1.68-7.34c0-3.23-0.56-5.67-1.68-7.3c-1.07-1.57-2.88-2.47-4.78-2.39    c-1.89-0.09-3.69,0.82-4.75,2.39c-1.1,1.6-1.65,4.03-1.65,7.3c0,3.27,0.56,5.71,1.68,7.34c1.01,1.62,2.81,2.58,4.72,2.52    C566.48,149.64,568.3,148.68,569.33,147.05z"/>
		<path id="Shape_12_" class="st4" d="M612.91,154.74c-2.51-1.3-4.58-3.32-5.95-5.79c-2.88-5.81-2.88-12.63,0-18.44    c1.38-2.45,3.45-4.44,5.95-5.72c2.68-1.33,5.63-1.99,8.62-1.94c3-0.05,5.97,0.61,8.66,1.94c2.52,1.27,4.61,3.26,6,5.72    c2.88,5.81,2.88,12.63,0,18.44c-1.38,2.48-3.47,4.5-6,5.79c-2.68,1.36-5.65,2.04-8.66,2C618.54,156.78,615.58,156.1,612.91,154.74    z M626.31,147.05c1.12-1.66,1.68-4.11,1.68-7.34c0-3.23-0.56-5.67-1.68-7.3c-1.07-1.57-2.88-2.47-4.78-2.39    c-1.89-0.09-3.69,0.82-4.75,2.39c-1.1,1.6-1.64,4-1.64,7.3c0,3.3,0.56,5.68,1.68,7.34c1.02,1.61,2.81,2.55,4.71,2.49    C623.45,149.62,625.27,148.67,626.31,147.05z"/>
		<path id="Shape_13_" class="st4" d="M672.96,124.79c-1.49-0.08-2.96,0.33-4.2,1.16c2.43,1.8,3.83,4.67,3.75,7.69    c0.08,3.17-1.42,6.16-4,8c-2.67,2-6.25,3-10.76,3c-2.26,0.02-4.51-0.31-6.66-1c-0.62,0.36-1,1.02-1,1.74    c0,1.77,1.49,2.65,4.46,2.65h9c3.92,0,6.88,0.8,8.88,2.39s3,3.93,3,7c0.11,3.57-1.74,6.91-4.81,8.72    c-3.21,2.07-7.81,3.1-13.79,3.11c-5.21,0-9.17-0.71-11.86-2.1c-2.69-1.39-4-3.29-4-5.66c0-1.29,0.52-2.53,1.43-3.45    c1.15-1.14,2.57-1.95,4.13-2.36c-2.93-1.17-4.39-3.19-4.39-6.08c-0.04-1.62,0.5-3.19,1.52-4.45c1.14-1.34,2.62-2.35,4.29-2.91    c-1.54-0.89-2.83-2.16-3.75-3.68c-0.87-1.52-1.32-3.25-1.29-5c-0.07-3.12,1.43-6.07,4-7.85c2.67-1.96,6.26-2.94,10.79-2.94    c2.52-0.04,5.04,0.35,7.43,1.16c0.51-1.79,1.66-3.33,3.23-4.32c1.85-1.11,3.99-1.65,6.14-1.55c0.45,0,0.9,0.02,1.35,0.06v6.91    C674.89,124.87,673.93,124.79,672.96,124.79z M652.35,156.64c-0.6,0-1.38,0-2.33-0.13c-0.84,0.77-1.31,1.86-1.29,3    c0,2.71,2.89,4.07,8.66,4.07c6.33,0,9.5-1.27,9.5-3.81c0-2.07-1.45-3.1-4.33-3.1L652.35,156.64z M661.35,137.74    c0.96-1.15,1.45-2.61,1.39-4.1c0.07-1.46-0.41-2.89-1.35-4c-0.92-1.02-2.25-1.58-3.62-1.52c-1.38-0.05-2.72,0.5-3.65,1.52    c-0.97,1.1-1.47,2.54-1.39,4c-0.06,1.49,0.43,2.95,1.39,4.1c0.91,1.06,2.26,1.64,3.65,1.59c1.38,0.04,2.7-0.54,3.59-1.59H661.35z"/>
		<path id="Path_13_" class="st5" d="M703.1,154.74c-2.69-1.24-4.95-3.26-6.49-5.79l6-4.52c2.28,3.49,5.68,5.23,10.2,5.23    c1.3,0.08,2.61-0.17,3.78-0.74c0.79-0.4,1.28-1.22,1.26-2.1c0.06-0.83-0.32-1.62-1-2.1c-1.12-0.6-2.35-0.96-3.61-1.06l-4.66-0.65    c-6.84-1.03-10.26-4.35-10.27-9.95c-0.09-2.97,1.33-5.78,3.78-7.46c2.52-1.83,6-2.75,10.43-2.75c3.03-0.05,6.04,0.53,8.83,1.72    c2.37,0.97,4.41,2.6,5.88,4.69l-5.36,4.84c-2.4-2.82-5.93-4.4-9.63-4.32c-1.18-0.08-2.35,0.14-3.42,0.64    c-0.72,0.4-1.15,1.18-1.1,2c-0.03,0.72,0.3,1.41,0.87,1.85c0.89,0.55,1.9,0.87,2.94,0.93l5.75,0.91c3.36,0.47,5.8,1.54,7.33,3.19    c1.61,1.87,2.43,4.29,2.3,6.76c0.12,3.07-1.3,6-3.78,7.81c-2.52,1.9-6.02,2.85-10.5,2.85C709.35,156.78,706.09,156.1,703.1,154.74    z"/>
		<path id="Path_14_" class="st5" d="M729.49,123.63h5.62v-7.76l10.34-4v11.76h7.69v6.94h-7.69v12.6c0,3.27,1.57,4.91,4.72,4.91    c1.01-0.01,2.01-0.12,3-0.32v8.2c-1.94,0.39-3.9,0.61-5.88,0.65c-4.18,0-7.25-0.93-9.21-2.78c-1.96-1.85-2.95-4.61-2.97-8.26v-15    h-5.62V123.63z"/>
		<path id="Path_15_" class="st5" d="M762.47,154.74c-2.69-1.24-4.95-3.26-6.49-5.79l6-4.52c2.28,3.49,5.68,5.23,10.21,5.23    c1.3,0.08,2.6-0.17,3.77-0.74c0.79-0.4,1.28-1.22,1.26-2.1c0.05-0.83-0.33-1.62-1-2.1c-1.12-0.6-2.35-0.96-3.62-1.06l-4.65-0.65    c-6.8-1.03-10.2-4.35-10.2-9.95c-0.09-2.97,1.33-5.78,3.78-7.46c2.52-1.83,6-2.75,10.44-2.75c3.01-0.05,6.01,0.54,8.78,1.72    c2.37,0.97,4.41,2.6,5.88,4.69l-5.36,4.84c-2.4-2.82-5.93-4.4-9.63-4.32c-1.18-0.08-2.35,0.14-3.42,0.64    c-0.72,0.4-1.14,1.18-1.1,2c-0.03,0.72,0.3,1.41,0.87,1.85c0.89,0.55,1.9,0.87,2.94,0.93l5.75,0.91c3.36,0.47,5.81,1.54,7.34,3.19    c1.6,1.88,2.42,4.3,2.29,6.76c0.12,3.07-1.3,6-3.78,7.81c-2.52,1.9-6.02,2.85-10.5,2.85C768.74,156.78,765.47,156.1,762.47,154.74    z"/>
		<path id="Path_16_" class="st6" d="M24.31,33.57C11.48,48.18,3.29,66.28,0.8,85.57l84.55-30.22L24.31,33.57z"/>
		<path id="Path_17_" class="st3" d="M0.05,95.06c0,1,0,2.09,0,3.14c-0.02,36.16,19.84,69.41,51.7,86.53L72.06,69.3L0.05,95.06z"/>
		<path id="Path_18_" class="st6" d="M195.6,85.57c-2.49-19.29-10.68-37.39-23.51-52l-61,21.83L195.6,85.57z"/>
		<path id="Path_19_" class="st3" d="M165.5,26.68c-37.81-35.57-96.78-35.57-134.59,0L98.2,50.76L165.5,26.68z"/>
		<path id="Path_20_" class="st3" d="M144.67,184.73c31.87-17.11,51.75-50.36,51.73-86.53c0-1,0-2.1-0.05-3.14l-72-25.76    L144.67,184.73z"/>
		<path id="Path_21_" class="st5" d="M98.2,59.95l-16.75,6L59.84,188.63c24.52,10.36,52.2,10.36,76.72,0l-21.6-122.69L98.2,59.95z"/>
		<path id="Shape_14_" class="st4" d="M789.25,118.9v-7.08h-2.68v-1.79h7.65v1.79h-2.82v7.08H789.25z M795.16,110.03h3.06l1.59,5.31    c0.12,0.45,0.19,0.91,0.22,1.38h0.07c0.03-0.47,0.1-0.93,0.22-1.38l1.57-5.31h3.06v8.87h-2v-5.2c0-0.8,0-1.44,0-1.92    c-0.11,0.46-0.24,1-0.42,1.61l-1.64,5.51h-1.84l-1.63-5.51c-0.17-0.53-0.3-1.07-0.4-1.61c0,0.48,0,1.12,0,1.92v5.2h-1.94    L795.16,110.03z"/>
		<path id="Path_22_" class="st5" d="M422.99,110.09h10.4v19.29c1.62-4.21,5.77-6.9,10.28-6.66c3.49,0,6.11,1.1,7.88,3.3    c1.77,2.2,2.65,5.47,2.65,9.82v20.09h-10.34v-19.06c0-4.13-1.59-6.2-4.78-6.2c-1.66-0.09-3.25,0.66-4.23,2    c-1.08,1.75-1.59,3.8-1.46,5.85v17.38h-10.4V110.09z"/>
		<path id="Shape_15_" class="st4" d="M531.08,118.98v-8.89h10.79v8.89H531.08z M531.21,155.98v-32.3h10.4v32.3H531.21z"/>
		<polygon id="Path_23_" class="st5" points="598.27,110.09 598.27,155.93 587.87,155.93 587.87,110.09   "/>
		<path id="Shape_16_" class="st4" d="M680.84,118.98v-8.89h10.79v8.89H680.84z M680.97,155.98v-32.3h10.4v32.3H680.97z"/>
	</g>
</g>
<path class="st2" d="M273.18,86.42l-4.85-13.37h-19.77l-4.85,13.37h-5.23l17.51-45.87h4.98l17.44,45.87H273.18z M266.78,68.79  L260,49.98c-0.78-2.15-1.27-3.64-1.49-4.46h-0.13c-0.39,1.46-0.88,2.95-1.49,4.46l-6.78,18.8H266.78z"/>
<path class="st2" d="M287,54.12v6.27c0.82-2.33,2.04-4.1,3.68-5.33c1.64-1.23,3.6-1.84,5.88-1.84c2.33,0,4.29,0.6,5.88,1.81  c1.59,1.21,2.73,2.95,3.42,5.23c0.95-2.33,2.27-4.08,3.97-5.27c1.7-1.18,3.69-1.78,5.98-1.78c3.14,0,5.59,1.06,7.33,3.17  c1.74,2.11,2.62,5.08,2.62,8.92v21.13h-4.52V65.68c0-2.76-0.57-4.86-1.71-6.3c-1.14-1.44-2.83-2.16-5.07-2.16  c-2.46,0-4.39,0.85-5.81,2.55c-1.42,1.7-2.13,4.04-2.13,7.01v19.64h-4.46v-21c0-2.63-0.58-4.65-1.74-6.07s-2.82-2.13-4.97-2.13  c-2.46,0-4.42,0.94-5.88,2.81c-1.46,1.87-2.2,4.38-2.2,7.53v18.87h-4.46v-32.3H287z"/>
<path class="st2" d="M358.78,71.43h-23.45c0.04,3.62,0.99,6.48,2.84,8.59c1.85,2.11,4.35,3.17,7.49,3.17c2.24,0,4.15-0.6,5.72-1.81  c1.57-1.21,2.7-2.91,3.39-5.1l3.81,1.55c-0.99,3.02-2.63,5.33-4.91,6.95c-2.28,1.62-5.06,2.42-8.33,2.42  c-4.61,0-8.18-1.44-10.73-4.33c-2.54-2.89-3.81-7.02-3.81-12.4c0-5.3,1.28-9.48,3.84-12.53c2.56-3.06,6.06-4.59,10.5-4.59  c4.35,0,7.71,1.28,10.08,3.84c2.37,2.56,3.55,6.28,3.55,11.15V71.43z M354.19,67.17c0-3.32-0.8-5.85-2.39-7.59  c-1.59-1.74-3.83-2.62-6.72-2.62c-2.97,0-5.32,0.96-7.04,2.88c-1.72,1.92-2.63,4.56-2.71,7.91h18.87V67.17z"/>
<path class="st2" d="M373.09,55.73c1.74-1.59,3.82-2.39,6.23-2.39c0.52,0,0.93,0.02,1.23,0.06v4.39h-0.52  c-2.89,0-5.19,0.82-6.91,2.46c-1.38,1.38-2.32,3.03-2.81,4.94c-0.5,1.92-0.74,4.06-0.74,6.43v14.8h-4.46v-32.3h4.2V62  C370.09,59.42,371.35,57.33,373.09,55.73z"/>
<path class="st2" d="M384.56,48.3V41.2h5.1v7.11H384.56z M384.88,86.42v-32.3h4.46v32.3H384.88z"/>
<path class="st2" d="M402.23,85.13c-2.22-1.38-3.92-3.34-5.1-5.88c-1.19-2.54-1.78-5.53-1.78-8.98c0-5.25,1.31-9.39,3.94-12.4  c2.63-3.01,6.2-4.52,10.72-4.52c3.7,0,6.71,1.03,9.01,3.1c2.3,2.07,3.65,4.93,4.04,8.59l-4.59,0.52c-0.3-2.67-1.21-4.72-2.71-6.14  s-3.49-2.13-5.94-2.13c-3.02,0-5.38,1.14-7.11,3.42c-1.72,2.28-2.58,5.45-2.58,9.5c0,4.14,0.87,7.34,2.62,9.63  c1.74,2.28,4.17,3.42,7.27,3.42c2.41,0,4.36-0.71,5.85-2.13s2.44-3.47,2.88-6.14l4.33,0.65c-0.6,3.66-2.05,6.5-4.33,8.53  c-2.28,2.02-5.19,3.04-8.72,3.04C407.04,87.2,404.45,86.51,402.23,85.13z"/>
<path class="st2" d="M428.91,84.65c-1.96-1.7-2.94-3.95-2.94-6.75c0-1.55,0.33-2.94,1-4.17s1.65-2.25,2.94-3.07  c2.28-1.33,5.81-2.3,10.6-2.91l7.17-0.84v-0.52c0-3.32-0.61-5.7-1.84-7.14c-1.23-1.44-3.22-2.16-5.98-2.16  c-2.46,0-4.38,0.61-5.78,1.84c-1.4,1.23-2.16,2.98-2.29,5.27h-4.85c0.17-3.32,1.43-5.95,3.78-7.91c2.35-1.96,5.37-2.94,9.08-2.94  c4.35,0,7.5,1.06,9.46,3.17c1.96,2.11,2.94,5.51,2.94,10.21v8.4c0,4.95,0.34,8.72,1.03,11.31h-4.72c-0.3-1.72-0.5-3.88-0.58-6.46  c-0.78,2.28-2.15,4.06-4.13,5.33c-1.98,1.27-4.35,1.91-7.11,1.91C433.47,87.2,430.87,86.35,428.91,84.65z M445,80.38  c1.83-2.04,2.75-4.73,2.75-8.04v-2.07l-9.17,1.29c-2.76,0.39-4.76,1.08-6.01,2.07c-1.25,0.99-1.87,2.37-1.87,4.13  c0,1.77,0.63,3.16,1.91,4.17c1.27,1.01,2.98,1.52,5.14,1.52C440.74,83.45,443.17,82.43,445,80.38z"/>
<path class="st2" d="M460.41,54.12h4.26v7.11c1.94-5.34,5.62-8.01,11.05-8.01c3.62,0,6.35,1.12,8.21,3.36  c1.85,2.24,2.78,5.54,2.78,9.89v19.96h-4.52V66.72c0-3.14-0.67-5.51-2-7.11c-1.34-1.59-3.27-2.39-5.82-2.39  c-2.93,0-5.24,1.09-6.95,3.26c-1.7,2.18-2.55,5.16-2.55,8.95v16.99h-4.46V54.12z"/>
<path class="st2" d="M509.99,83.45c-3.08-2.71-4.79-6.31-5.14-10.79l5.04-0.71c0.39,3.36,1.67,6.11,3.84,8.24  c2.17,2.13,5.31,3.2,9.4,3.2c3.19,0,5.82-0.73,7.91-2.2c2.09-1.46,3.13-3.62,3.13-6.46c0-2.8-0.77-4.83-2.29-6.11  c-1.53-1.27-3.87-2.21-7.01-2.81l-6.78-1.36c-7.54-1.46-11.31-5.56-11.31-12.28c0-2.54,0.63-4.77,1.91-6.69  c1.27-1.92,3.08-3.4,5.43-4.46c2.35-1.05,5.09-1.58,8.24-1.58c4.74,0,8.59,1.1,11.56,3.3c2.97,2.2,4.65,5.53,5.04,10.01l-5.04,0.97  c-0.65-6.85-4.54-10.27-11.69-10.27c-3.1,0-5.59,0.74-7.46,2.23c-1.87,1.49-2.81,3.5-2.81,6.04c0,2.28,0.66,4.1,1.97,5.46  c1.31,1.36,3.37,2.34,6.17,2.94l6.78,1.36c3.92,0.77,6.98,2.13,9.17,4.07c2.2,1.94,3.3,4.82,3.3,8.66c0,2.54-0.62,4.81-1.87,6.82  c-1.25,2-3.11,3.59-5.59,4.75c-2.48,1.16-5.46,1.74-8.95,1.74C517.39,87.52,513.07,86.17,509.99,83.45z"/>
<path class="st2" d="M549.31,85.16c-2.24-1.36-3.97-3.32-5.2-5.88c-1.23-2.56-1.84-5.57-1.84-9.01c0-3.45,0.61-6.45,1.84-9.01  c1.23-2.56,2.96-4.52,5.2-5.88c2.24-1.36,4.85-2.04,7.82-2.04s5.57,0.68,7.79,2.04c2.22,1.36,3.94,3.32,5.17,5.88  c1.23,2.56,1.84,5.57,1.84,9.01c0,3.45-0.61,6.45-1.84,9.01c-1.23,2.56-2.95,4.52-5.17,5.88c-2.22,1.36-4.81,2.04-7.79,2.04  S551.55,86.52,549.31,85.16z M564.49,79.9c1.77-2.24,2.65-5.45,2.65-9.63c0-4.18-0.88-7.39-2.65-9.63  c-1.77-2.24-4.22-3.36-7.37-3.36c-3.14,0-5.61,1.12-7.4,3.36c-1.79,2.24-2.68,5.45-2.68,9.63c0,4.18,0.89,7.39,2.68,9.63  c1.79,2.24,4.25,3.36,7.4,3.36C560.27,83.26,562.72,82.14,564.49,79.9z"/>
<path class="st2" d="M581.77,85.13c-2.22-1.38-3.92-3.34-5.1-5.88c-1.19-2.54-1.78-5.53-1.78-8.98c0-5.25,1.31-9.39,3.94-12.4  c2.63-3.01,6.2-4.52,10.73-4.52c3.7,0,6.71,1.03,9.01,3.1c2.3,2.07,3.65,4.93,4.04,8.59l-4.59,0.52c-0.3-2.67-1.21-4.72-2.71-6.14  c-1.51-1.42-3.49-2.13-5.94-2.13c-3.02,0-5.38,1.14-7.11,3.42c-1.72,2.28-2.58,5.45-2.58,9.5c0,4.14,0.87,7.34,2.62,9.63  c1.74,2.28,4.17,3.42,7.27,3.42c2.41,0,4.36-0.71,5.85-2.13s2.44-3.47,2.88-6.14l4.33,0.65c-0.6,3.66-2.05,6.5-4.33,8.53  c-2.28,2.02-5.19,3.04-8.72,3.04C586.58,87.2,583.99,86.51,581.77,85.13z"/>
<path class="st2" d="M608.36,48.3V41.2h5.1v7.11H608.36z M608.68,86.42v-32.3h4.46v32.3H608.68z"/>
<path class="st2" d="M647.12,71.43h-23.45c0.04,3.62,0.99,6.48,2.84,8.59c1.85,2.11,4.35,3.17,7.49,3.17c2.24,0,4.15-0.6,5.72-1.81  c1.57-1.21,2.7-2.91,3.39-5.1l3.81,1.55c-0.99,3.02-2.63,5.33-4.91,6.95c-2.28,1.62-5.06,2.42-8.33,2.42  c-4.61,0-8.18-1.44-10.72-4.33c-2.54-2.89-3.81-7.02-3.81-12.4c0-5.3,1.28-9.48,3.84-12.53c2.56-3.06,6.06-4.59,10.5-4.59  c4.35,0,7.71,1.28,10.08,3.84c2.37,2.56,3.55,6.28,3.55,11.15V71.43z M642.53,67.17c0-3.32-0.8-5.85-2.39-7.59  c-1.59-1.74-3.83-2.62-6.72-2.62c-2.97,0-5.32,0.96-7.04,2.88c-1.72,1.92-2.63,4.56-2.71,7.91h18.87V67.17z"/>
<path class="st2" d="M647.77,54.12h5.94v-8.53l4.52-1.94v10.47h8.33v3.75h-8.33v19.38c0,1.9,0.42,3.28,1.26,4.17  c0.84,0.88,2.1,1.32,3.78,1.32c0.91,0,2-0.15,3.29-0.45v4.13c-1.33,0.39-2.82,0.58-4.46,0.58c-2.97,0-5.12-0.83-6.43-2.49  c-1.31-1.66-1.97-4.02-1.97-7.07V57.87h-5.94V54.12z"/>
<path class="st2" d="M669.8,99.15v-4.01c0.78,0.13,1.53,0.19,2.26,0.19c2.02,0,3.62-0.55,4.78-1.65c1.16-1.1,2.15-2.81,2.97-5.14  l0.84-2.39l-12.92-32.05h5.04l8.66,23.07c0.56,1.46,1.03,2.93,1.42,4.39h0.13c0.3-1.21,0.75-2.69,1.36-4.46l7.88-23h4.85  l-12.6,34.37c-1.42,3.92-3.07,6.72-4.94,8.4c-1.87,1.68-4.17,2.52-6.88,2.52C671.61,99.41,670.66,99.32,669.8,99.15z"/>
<path class="st2" d="M718.19,85.16c-2.24-1.36-3.97-3.32-5.2-5.88c-1.23-2.56-1.84-5.57-1.84-9.01c0-3.45,0.61-6.45,1.84-9.01  c1.23-2.56,2.96-4.52,5.2-5.88c2.24-1.36,4.85-2.04,7.82-2.04s5.57,0.68,7.79,2.04c2.22,1.36,3.94,3.32,5.17,5.88  c1.23,2.56,1.84,5.57,1.84,9.01c0,3.45-0.61,6.45-1.84,9.01c-1.23,2.56-2.95,4.52-5.17,5.88c-2.22,1.36-4.81,2.04-7.79,2.04  S720.43,86.52,718.19,85.16z M733.37,79.9c1.77-2.24,2.65-5.45,2.65-9.63c0-4.18-0.88-7.39-2.65-9.63  c-1.77-2.24-4.22-3.36-7.37-3.36c-3.14,0-5.61,1.12-7.4,3.36c-1.79,2.24-2.68,5.45-2.68,9.63c0,4.18,0.89,7.39,2.68,9.63  c1.79,2.24,4.25,3.36,7.4,3.36C729.15,83.26,731.6,82.14,733.37,79.9z"/>
<path class="st2" d="M760.25,57.87h-8.4v28.56h-4.46V57.87h-6.07v-3.75h6.07v-5.36c0-2.93,0.81-5.25,2.42-6.98  c1.61-1.72,3.82-2.58,6.62-2.58c1.51,0,2.78,0.15,3.81,0.45v3.88c-1.21-0.21-2.28-0.32-3.23-0.32c-1.81,0-3.12,0.5-3.94,1.49  c-0.82,0.99-1.23,2.54-1.23,4.65v4.78h8.4V57.87z"/>
<path class="st4" d="M272.72,156.23l-3.49-10.73h-16.93l-3.49,10.73H237.9l16.67-45.87h12.47l16.67,45.87H272.72z M266.72,137.82  l-4.2-12.79c-0.35-0.99-0.66-2.01-0.94-3.07c-0.28-1.06-0.53-2.19-0.74-3.39h-0.13c-0.22,1.21-0.46,2.34-0.74,3.39  c-0.28,1.06-0.59,2.08-0.94,3.07l-4.2,12.79H266.72z"/>
<path class="st4" d="M288.88,123.93h9.95v6.2c2.24-4.69,5.81-7.04,10.73-7.04c3.49,0,6.12,1.1,7.88,3.29  c1.77,2.2,2.65,5.47,2.65,9.82v20.03h-10.34v-18.61c0-2.24-0.4-3.9-1.2-4.98c-0.8-1.08-2.01-1.62-3.65-1.62c-1.81,0-3.2,0.67-4.17,2  c-0.97,1.34-1.45,3.25-1.45,5.75v17.44h-10.4V123.93z"/>
<path class="st4" d="M358.01,142.4h-22.42c0.04,2.2,0.74,3.94,2.1,5.23c1.36,1.29,3.13,1.94,5.33,1.94c3.19,0,5.53-1.51,7.04-4.52  l7.62,3.49c-1.29,2.67-3.24,4.75-5.85,6.23c-2.61,1.49-5.59,2.23-8.95,2.23c-5.34,0-9.53-1.46-12.57-4.39  c-3.04-2.93-4.56-7-4.56-12.21c0-3.49,0.67-6.54,2-9.14c1.33-2.61,3.24-4.61,5.72-6.01c2.48-1.4,5.37-2.1,8.69-2.1  c5.08,0,8.99,1.41,11.73,4.23c2.73,2.82,4.1,6.79,4.1,11.92V142.4z M347.99,136.33c0-2.28-0.52-4.03-1.55-5.23  c-1.03-1.21-2.52-1.81-4.46-1.81c-1.98,0-3.52,0.64-4.62,1.91c-1.1,1.27-1.69,3.07-1.78,5.4h12.4V136.33z"/>
<path class="st4" d="M367.41,155.03c-2.78-1.31-4.94-3.24-6.49-5.78l6.01-4.52c2.28,3.49,5.69,5.23,10.21,5.23  c1.68,0,2.94-0.25,3.78-0.74c0.84-0.49,1.26-1.2,1.26-2.1c0-0.95-0.32-1.65-0.97-2.1s-1.85-0.81-3.62-1.07l-4.65-0.65  c-6.85-1.03-10.27-4.35-10.27-9.95c0-3.14,1.26-5.63,3.78-7.46c2.52-1.83,6-2.75,10.43-2.75c3.27,0,6.2,0.57,8.79,1.71  c2.58,1.14,4.54,2.7,5.88,4.68l-5.36,4.85c-2.54-2.89-5.75-4.33-9.63-4.33c-1.55,0-2.69,0.22-3.42,0.65c-0.73,0.43-1.1,1.1-1.1,2  c0,0.77,0.29,1.39,0.87,1.84c0.58,0.45,1.56,0.77,2.94,0.94l5.75,0.9c3.36,0.47,5.8,1.54,7.33,3.2c1.53,1.66,2.29,3.91,2.29,6.75  c0,3.32-1.26,5.92-3.78,7.82c-2.52,1.9-6.02,2.84-10.5,2.84C373.36,157.01,370.18,156.35,367.41,155.03z"/>
<path class="st4" d="M393.8,123.93h5.62v-7.75l10.34-4.01v11.76h7.69v6.91h-7.69v12.6c0,3.27,1.57,4.91,4.72,4.91  c0.9,0,1.89-0.11,2.97-0.32v8.21c-2.28,0.43-4.24,0.65-5.88,0.65c-4.18,0-7.25-0.93-9.21-2.78c-1.96-1.85-2.94-4.59-2.94-8.21  v-15.05h-5.62V123.93z"/>
<path class="st4" d="M492.84,142.4h-22.42c0.04,2.2,0.74,3.94,2.1,5.23c1.36,1.29,3.13,1.94,5.33,1.94c3.19,0,5.53-1.51,7.04-4.52  l7.62,3.49c-1.29,2.67-3.24,4.75-5.85,6.23c-2.61,1.49-5.59,2.23-8.95,2.23c-5.34,0-9.53-1.46-12.57-4.39  c-3.04-2.93-4.55-7-4.55-12.21c0-3.49,0.67-6.54,2-9.14c1.33-2.61,3.24-4.61,5.72-6.01c2.48-1.4,5.37-2.1,8.69-2.1  c5.08,0,8.99,1.41,11.73,4.23c2.73,2.82,4.1,6.79,4.1,11.92V142.4z M482.83,136.33c0-2.28-0.52-4.03-1.55-5.23  c-1.03-1.21-2.52-1.81-4.46-1.81c-1.98,0-3.52,0.64-4.62,1.91c-1.1,1.27-1.69,3.07-1.78,5.4h12.4V136.33z"/>
<path class="st4" d="M502.24,155.03c-2.78-1.31-4.94-3.24-6.49-5.78l6.01-4.52c2.28,3.49,5.69,5.23,10.21,5.23  c1.68,0,2.94-0.25,3.78-0.74c0.84-0.49,1.26-1.2,1.26-2.1c0-0.95-0.32-1.65-0.97-2.1s-1.85-0.81-3.62-1.07l-4.65-0.65  c-6.85-1.03-10.27-4.35-10.27-9.95c0-3.14,1.26-5.63,3.78-7.46c2.52-1.83,6-2.75,10.43-2.75c3.27,0,6.2,0.57,8.79,1.71  c2.58,1.14,4.54,2.7,5.88,4.68l-5.36,4.85c-2.54-2.89-5.75-4.33-9.63-4.33c-1.55,0-2.69,0.22-3.42,0.65c-0.73,0.43-1.1,1.1-1.1,2  c0,0.77,0.29,1.39,0.87,1.84c0.58,0.45,1.56,0.77,2.94,0.94l5.75,0.9c3.36,0.47,5.8,1.54,7.33,3.2c1.53,1.66,2.29,3.91,2.29,6.75  c0,3.32-1.26,5.92-3.78,7.82c-2.52,1.9-6.02,2.84-10.5,2.84C508.2,157.01,505.02,156.35,502.24,155.03z"/>
<path class="st4" d="M556.64,155.03c-2.52-1.31-4.5-3.24-5.94-5.78c-1.44-2.54-2.16-5.62-2.16-9.24c0-3.62,0.72-6.69,2.16-9.21  c1.44-2.52,3.42-4.43,5.94-5.72c2.52-1.29,5.39-1.94,8.62-1.94s6.12,0.65,8.66,1.94c2.54,1.29,4.53,3.2,5.98,5.72  c1.44,2.52,2.16,5.59,2.16,9.21c0,3.62-0.72,6.7-2.16,9.24c-1.44,2.54-3.44,4.47-5.98,5.78c-2.54,1.31-5.43,1.97-8.66,1.97  S559.16,156.35,556.64,155.03z M570.05,147.35c1.12-1.66,1.68-4.1,1.68-7.33c0-3.27-0.56-5.71-1.68-7.3  c-1.12-1.59-2.71-2.39-4.78-2.39s-3.65,0.8-4.75,2.39c-1.1,1.59-1.65,4.03-1.65,7.3c0,3.23,0.56,5.68,1.68,7.33  c1.12,1.66,2.69,2.49,4.72,2.49C567.33,149.83,568.93,149,570.05,147.35z"/>
<path class="st4" d="M613.63,155.03c-2.52-1.31-4.5-3.24-5.94-5.78c-1.44-2.54-2.16-5.62-2.16-9.24c0-3.62,0.72-6.69,2.16-9.21  c1.44-2.52,3.42-4.43,5.94-5.72c2.52-1.29,5.39-1.94,8.62-1.94s6.12,0.65,8.66,1.94c2.54,1.29,4.53,3.2,5.98,5.72  c1.44,2.52,2.16,5.59,2.16,9.21c0,3.62-0.72,6.7-2.16,9.24c-1.44,2.54-3.44,4.47-5.98,5.78c-2.54,1.31-5.43,1.97-8.66,1.97  S616.14,156.35,613.63,155.03z M627.03,147.35c1.12-1.66,1.68-4.1,1.68-7.33c0-3.27-0.56-5.71-1.68-7.3  c-1.12-1.59-2.71-2.39-4.78-2.39s-3.65,0.8-4.75,2.39c-1.1,1.59-1.65,4.03-1.65,7.3c0,3.23,0.56,5.68,1.68,7.33  c1.12,1.66,2.69,2.49,4.72,2.49C624.32,149.83,625.91,149,627.03,147.35z"/>
<path class="st4" d="M673.68,125.09c-1.77,0-3.17,0.39-4.2,1.16c2.5,1.94,3.75,4.5,3.75,7.69c0,3.32-1.32,5.98-3.97,7.98  c-2.65,2-6.24,3-10.76,3c-2.5,0-4.72-0.32-6.65-0.97c-0.65,0.43-0.97,1.01-0.97,1.74c0,1.77,1.49,2.65,4.46,2.65h9.05  c3.92,0,6.88,0.8,8.88,2.39c2,1.59,3,3.94,3,7.04c0,3.75-1.61,6.65-4.81,8.72c-3.21,2.07-7.81,3.1-13.79,3.1  c-5.21,0-9.16-0.7-11.86-2.1c-2.69-1.4-4.04-3.28-4.04-5.65c0-1.29,0.47-2.45,1.42-3.46c0.95-1.01,2.33-1.8,4.13-2.36  c-2.93-1.16-4.39-3.19-4.39-6.07c0-1.72,0.51-3.21,1.52-4.46c1.01-1.25,2.44-2.22,4.3-2.91c-1.64-0.99-2.89-2.22-3.75-3.68  c-0.86-1.46-1.29-3.12-1.29-4.97c0-3.27,1.33-5.89,4.01-7.85c2.67-1.96,6.27-2.94,10.79-2.94c2.8,0,5.28,0.39,7.43,1.16  c0.56-1.85,1.64-3.29,3.23-4.33s3.64-1.55,6.14-1.55c0.56,0,1.01,0.02,1.36,0.06v6.91C675.44,125.2,674.45,125.09,673.68,125.09z   M653.07,156.94c-0.6,0-1.38-0.04-2.33-0.13c-0.86,0.82-1.29,1.83-1.29,3.04c0,2.71,2.88,4.07,8.66,4.07c6.33,0,9.5-1.27,9.5-3.81  c0-2.07-1.44-3.1-4.33-3.1L653.07,156.94z M662.08,138.04c0.93-1.06,1.39-2.42,1.39-4.1c0-1.64-0.45-2.96-1.36-3.97  c-0.9-1.01-2.11-1.52-3.62-1.52s-2.72,0.51-3.65,1.52c-0.93,1.01-1.39,2.34-1.39,3.97c0,1.68,0.46,3.05,1.39,4.1  c0.93,1.06,2.14,1.58,3.65,1.58C659.96,139.63,661.15,139.1,662.08,138.04z"/>
<path class="st4" d="M703.82,155.03c-2.78-1.31-4.94-3.24-6.49-5.78l6.01-4.52c2.28,3.49,5.69,5.23,10.21,5.23  c1.68,0,2.94-0.25,3.78-0.74c0.84-0.49,1.26-1.2,1.26-2.1c0-0.95-0.32-1.65-0.97-2.1s-1.85-0.81-3.62-1.07l-4.65-0.65  c-6.85-1.03-10.27-4.35-10.27-9.95c0-3.14,1.26-5.63,3.78-7.46c2.52-1.83,6-2.75,10.43-2.75c3.27,0,6.2,0.57,8.79,1.71  c2.58,1.14,4.54,2.7,5.88,4.68l-5.36,4.85c-2.54-2.89-5.75-4.33-9.63-4.33c-1.55,0-2.69,0.22-3.42,0.65c-0.73,0.43-1.1,1.1-1.1,2  c0,0.77,0.29,1.39,0.87,1.84c0.58,0.45,1.56,0.77,2.94,0.94l5.75,0.9c3.36,0.47,5.8,1.54,7.33,3.2c1.53,1.66,2.29,3.91,2.29,6.75  c0,3.32-1.26,5.92-3.78,7.82c-2.52,1.9-6.02,2.84-10.5,2.84C709.77,157.01,706.6,156.35,703.82,155.03z"/>
<path class="st4" d="M730.21,123.93h5.62v-7.75l10.34-4.01v11.76h7.69v6.91h-7.69v12.6c0,3.27,1.57,4.91,4.72,4.91  c0.9,0,1.89-0.11,2.97-0.32v8.21c-2.28,0.43-4.24,0.65-5.88,0.65c-4.18,0-7.25-0.93-9.21-2.78c-1.96-1.85-2.94-4.59-2.94-8.21  v-15.05h-5.62V123.93z"/>
<path class="st4" d="M763.19,155.03c-2.78-1.31-4.94-3.24-6.49-5.78l6.01-4.52c2.28,3.49,5.69,5.23,10.21,5.23  c1.68,0,2.94-0.25,3.78-0.74c0.84-0.49,1.26-1.2,1.26-2.1c0-0.95-0.32-1.65-0.97-2.1s-1.85-0.81-3.62-1.07l-4.65-0.65  c-6.85-1.03-10.27-4.35-10.27-9.95c0-3.14,1.26-5.63,3.78-7.46c2.52-1.83,6-2.75,10.43-2.75c3.27,0,6.2,0.57,8.79,1.71  c2.58,1.14,4.54,2.7,5.88,4.68l-5.36,4.85c-2.54-2.89-5.75-4.33-9.63-4.33c-1.55,0-2.69,0.22-3.42,0.65c-0.73,0.43-1.1,1.1-1.1,2  c0,0.77,0.29,1.39,0.87,1.84c0.58,0.45,1.56,0.77,2.94,0.94l5.75,0.9c3.36,0.47,5.8,1.54,7.33,3.2c1.53,1.66,2.29,3.91,2.29,6.75  c0,3.32-1.26,5.92-3.78,7.82c-2.52,1.9-6.02,2.84-10.5,2.84C769.14,157.01,765.97,156.35,763.19,155.03z"/>
<path class="st7" d="M25.03,33.82C12.5,48.12,4.06,66.08,1.52,85.89l84.55-30.24L25.03,33.82z"/>
<path class="st2" d="M0.77,95.36c-0.03,1.04-0.05,2.09-0.05,3.14c0,37.42,20.94,69.96,51.73,86.53L72.78,69.6L0.77,95.36z"/>
<path class="st7" d="M196.32,85.89c-2.54-19.81-10.98-37.78-23.51-52.07l-61.04,21.83L196.32,85.89z"/>
<path class="st2" d="M166.22,26.98C148.64,10.44,124.96,0.3,98.92,0.3c-26.04,0-49.72,10.14-67.3,26.69l67.3,24.07L166.22,26.98z"/>
<path class="st2" d="M145.39,185.03c30.8-16.57,51.73-49.11,51.73-86.53c0-1.05-0.02-2.1-0.05-3.14L125.06,69.6L145.39,185.03z"/>
<path class="st4" d="M98.92,60.25l-16.76,5.99L60.56,188.93c11.79,5.01,24.75,7.78,38.36,7.78s26.58-2.77,38.36-7.78L115.67,66.24  L98.92,60.25z"/>
<path class="st4" d="M423.71,110.39h10.4v19.29c1.98-4.44,5.41-6.65,10.27-6.65c3.49,0,6.12,1.1,7.88,3.29  c1.77,2.2,2.65,5.47,2.65,9.82v20.09h-10.34v-19.06c0-4.13-1.59-6.2-4.78-6.2c-1.85,0-3.26,0.68-4.23,2.04  c-0.97,1.36-1.45,3.31-1.45,5.85v17.38h-10.4V110.39z"/>
<path class="st4" d="M531.8,119.27v-8.89h10.79v8.89H531.8z M531.93,156.23v-32.3h10.4v32.3H531.93z"/>
<path class="st4" d="M598.99,110.39v45.84h-10.4v-45.84H598.99z"/>
<path class="st4" d="M681.56,119.27v-8.89h10.79v8.89H681.56z M681.69,156.23v-32.3h10.4v32.3H681.69z"/>
<g>
	<path class="st4" d="M800.28,115.52c0,3.68-2.73,5.98-5.96,5.98c-3.24,0-5.98-2.3-5.98-5.98c0-3.69,2.73-5.98,5.98-5.98   C797.55,109.55,800.28,111.83,800.28,115.52z M799.19,115.52c0-3.12-2.23-5.03-4.87-5.03c-2.65,0-4.88,1.91-4.88,5.03   c0,3.1,2.23,5.03,4.88,5.03C796.96,120.55,799.19,118.62,799.19,115.52z M795.83,116.05l1.49,2.68h-1.8l-1.3-2.49h-0.72v2.49h-1.64   v-6.54h2.84c1.56,0,2.42,0.75,2.42,2.07C797.13,115.1,796.65,115.76,795.83,116.05z M793.5,115.12h0.9c0.66,0,1.04-0.3,1.04-0.85   c0-0.58-0.35-0.87-1.04-0.87h-0.9V115.12z"/>
</g>
</svg>